<svg id="Capa_1" enable-background="new 0 0 512.01 512.01" height="512" viewBox="0 0 512.01 512.01" width="512" xmlns="http://www.w3.org/2000/svg"><g><path d="m467.14 482.01v-176.057h-130.755v-88.733h-160.756v54.636h-130.755v210.154h-44.869v30h512v-30zm-291.511-.001h-100.755v-180.153h100.755zm130.755-.001h-100.755v-234.788h100.756zm130.756.001h-100.755v-146.056h100.755z"/><path d="m196.989 181.642 59.019-19.146 59.019 19.146.029-62.047 36.446-50.213-59-19.201-36.495-50.181-36.494 50.18-59 19.201 36.446 50.213zm41.063-105.947 17.955-24.689 17.955 24.689 29.029 9.447-17.933 24.706-.014 30.528-29.038-9.42-29.038 9.42-.014-30.528-17.933-24.706z"/></g></svg>